<?xml version="1.0" encoding="UTF-8" standalone="no"?>
<!-- Created with Inkscape (http://www.inkscape.org/) -->

<svg
   xmlns:dc="http://purl.org/dc/elements/1.1/"
   xmlns:cc="http://creativecommons.org/ns#"
   xmlns:rdf="http://www.w3.org/1999/02/22-rdf-syntax-ns#"
   xmlns:svg="http://www.w3.org/2000/svg"
   xmlns="http://www.w3.org/2000/svg"
   xmlns:sodipodi="http://sodipodi.sourceforge.net/DTD/sodipodi-0.dtd"
   xmlns:inkscape="http://www.inkscape.org/namespaces/inkscape"
   id="svg4136"
   version="1.1"
   inkscape:version="0.91 r13725"
   xml:space="preserve"
   width="744.09497"
   height="1052.3625"
   viewBox="0 0 744.09497 1052.3625"
   sodipodi:docname="rockerSmall.svg"><metadata
     id="metadata4142"><rdf:RDF><cc:Work
         rdf:about=""><dc:format>image/svg+xml</dc:format><dc:type
           rdf:resource="http://purl.org/dc/dcmitype/StillImage" /><dc:title></dc:title></cc:Work></rdf:RDF></metadata><defs
     id="defs4140"><clipPath
       clipPathUnits="userSpaceOnUse"
       id="clipPath4162"><path
         d="m 17.097,21.245 561.081,0 0,799.4 -561.081,0 0,-799.4 z"
         id="path4164"
         inkscape:connector-curvature="0" /></clipPath><clipPath
       clipPathUnits="userSpaceOnUse"
       id="clipPath6368"><path
         d="m 471.26,762.52 71.038,0 0,22.677 -71.038,0 0,-22.677 z"
         id="path6370"
         inkscape:connector-curvature="0" /></clipPath><clipPath
       clipPathUnits="userSpaceOnUse"
       id="clipPath6416"><path
         d="m 471.26,785.197 0,-10.631 c 6.175,-0.418 12.636,-0.64 19.289,-0.64 l 0,0 c 19.779,0 37.865,1.96 51.749,5.201 l 0,0 0,6.07 -71.038,0 z"
         id="path6418"
         inkscape:connector-curvature="0" /></clipPath><clipPath
       clipPathUnits="userSpaceOnUse"
       id="clipPath6480"><path
         d="m 471.26,762.52 71.038,0 0,22.677 -71.038,0 0,-22.677 z"
         id="path6482"
         inkscape:connector-curvature="0" /></clipPath></defs><sodipodi:namedview
     pagecolor="#ffffff"
     bordercolor="#666666"
     borderopacity="1"
     objecttolerance="10"
     gridtolerance="10"
     guidetolerance="10"
     inkscape:pageopacity="0"
     inkscape:pageshadow="2"
     inkscape:window-width="1680"
     inkscape:window-height="1028"
     id="namedview4138"
     showgrid="false"
     inkscape:zoom="7.4955157"
     inkscape:cx="176.49547"
     inkscape:cy="705.64017"
     inkscape:window-x="1912"
     inkscape:window-y="-8"
     inkscape:window-maximized="1"
     inkscape:current-layer="g4144"
     inkscape:snap-center="true"
     inkscape:snap-object-midpoints="true"
     inkscape:object-nodes="true" /><g
     id="g4144"
     inkscape:groupmode="layer"
     inkscape:label="rockerSmall"
     transform="matrix(1.25,0,0,-1.25,0,1052.3625)"><g
       id="g8699"
       transform="matrix(0.50887013,0,0,0.50858577,41.447897,333.11084)"
       style="stroke-width:0.67271823;stroke-miterlimit:4;stroke-dasharray:none"><g
         transform="translate(241.2979,406.9644)"
         id="g6122"
         style="stroke-width:0.67271823;stroke-miterlimit:4;stroke-dasharray:none"><path
           inkscape:connector-curvature="0"
           id="path6124"
           style="fill:none;stroke:#231f20;stroke-width:0.5572027;stroke-linecap:round;stroke-linejoin:round;stroke-miterlimit:4;stroke-dasharray:none;stroke-opacity:1"
           d="m 0,0 -10.8,4.2 m -52.68,13.321 0,-8.281 m 116.16,8.281 0,-8.281 m -113.4,11.04 110.64,0 m -113.4,-11.04 116.16,0 m -113.4,11.04 -1.08,-0.12 -0.96,-0.599 -0.6,-0.961 -0.12,-1.079 m 116.16,0 -0.24,1.079 -0.6,0.961 -0.84,0.599 -1.08,0.12 m -101.88,-69.12 93,0 m -98.52,11.04 0,-16.559 m 4.2,63.599 0,-47.04 m 95.76,47.04 0,-47.04 m 4.08,0 0,-16.559 m -104.04,16.559 -7.68,24.96 m 4.56,0 6.72,22.08 m -5.28,-2.16 0.72,0 0,2.16 m -0.72,-2.16 0,-3.359 -0.96,0 m -1.08,-3.361 1.08,0 0,3.361 m -2.04,-6.601 0.96,0 0,3.24 m -1.92,-6.599 0.96,0 0,3.359 m -2.04,-6.72 1.08,0 0,3.361 m -2.04,-6.601 0.96,0 0,3.24 m 18.6,18.84 0,-17.16 -7.68,0 m 5.52,2.76 0,14.4 m -3.36,0 0,-14.4 3.36,0 m -3.36,0 -2.16,-2.76 m 5.52,2.76 2.16,-2.76 m 82.56,2.76 -2.28,-2.76 m 7.8,0 -2.28,2.76 -3.24,0 m 3.24,0 0,14.4 m -3.24,-14.4 0,14.4 m 5.52,-17.16 -7.8,0 0,17.16 m -50.64,-13.32 -4.44,0 0,13.32 m 4.44,0 0,-13.32 m -1.08,1.681 -2.16,0 -1.2,-1.681 m 3.36,1.681 1.08,-1.681 M 0.36,2.04 c -0.279,7.746 -11.146,7.715 -11.64,0 0.527,-7.697 11.338,-7.71 11.64,0 z m -57.84,-39.84 4.2,0 m 0,1.561 -7.32,23.399 m 103.08,-23.399 7.2,23.399 m 3.6,3.24 0,-3.24 1.08,0 m -2.04,6.601 0,-3.361 0.96,0 m -1.92,6.72 0,-3.359 0.96,0 m -2.04,6.599 0,-3.24 1.08,0 m -2.04,6.601 0,-3.361 0.96,0 m -0.96,3.361 -1.08,0 0,3.359 m -0.6,2.16 0,-2.16 0.6,0 m 1.44,-19.92 -6.72,22.08 m 11.4,-22.08 -7.8,-24.96 -4.08,0 m -99.96,-16.559 11.16,0 m -5.64,5.519 0,-5.519 m 93,5.519 0,-5.519 m -77.4,5.519 0,-5.519" /></g><g
         transform="translate(197.1378,363.4048)"
         id="g6126"
         style="stroke-width:0.67271823;stroke-miterlimit:4;stroke-dasharray:none"><path
           inkscape:connector-curvature="0"
           id="path6128"
           style="fill:none;stroke:#231f20;stroke-width:0.5572027;stroke-linecap:round;stroke-linejoin:round;stroke-miterlimit:4;stroke-dasharray:none;stroke-opacity:1"
           d="m 0,0 0,-7.561 m 0,-1.799 0,-1.8 m 0,-1.68 0,-10.56 m 0,-1.8 0,-1.68 m 0,-1.8 0,-10.56 m 0,-1.8 0,-1.68 m 0,-1.801 0,-7.679" /></g><g
         transform="translate(194.9776,358.1245)"
         id="g6130"
         style="stroke-width:0.67271823;stroke-miterlimit:4;stroke-dasharray:none"><path
           inkscape:connector-curvature="0"
           id="path6132"
           style="fill:none;stroke:#231f20;stroke-width:0.5572027;stroke-linecap:round;stroke-linejoin:round;stroke-miterlimit:4;stroke-dasharray:none;stroke-opacity:1"
           d="M 0,0 0,-40.92 M 4.32,0 l 0,-40.92 m 5.64,35.4 -5.64,0 M 0,-38.76 l 4.32,0 M 43.08,0 l 0,-40.92 M 38.64,0 l 0,-40.92 m -38.64,0 1.08,-3.36 m 3.24,3.36 -1.08,-3.36 -2.16,0 m 38.76,0 2.16,0 1.08,3.36 m -4.44,0 1.2,-3.36 m -1.2,5.52 4.44,0 M 33.12,0 l 0,-5.52 5.52,0 m 4.44,0 5.52,0 0,5.52 m 28.8,-5.52 -5.52,0 0,5.52 m 21,-5.52 -11.04,0 m -4.44,0 0,5.52 m 4.44,-5.52 0,5.52 m -54.72,46.44 0,11.64 m 2.16,-11.64 0,11.64 m 23.28,-11.64 0,11.64 m 2.16,-11.64 0,11.64 m -2.16,-11.64 -1.2,-1.68 m 4.44,0 -1.08,1.68 -2.16,0 m -1.2,11.64 0,-13.32 m 4.44,13.32 0,-13.32 -4.44,0 M 19.08,93.48 C 12.353,86.987 6.431,77.914 3.24,69.12 M 21.72,93.6 C 39.103,78.068 61.886,69.284 85.2,69.12 M 21.72,93.6 20.88,94.08 19.92,93.96 19.08,93.48" /></g><g
         transform="translate(235.898,312.6451)"
         id="g6134"
         style="stroke-width:0.67271823;stroke-miterlimit:4;stroke-dasharray:none"><path
           inkscape:connector-curvature="0"
           id="path6136"
           style="fill:none;stroke:#231f20;stroke-width:0.5572027;stroke-linecap:round;stroke-linejoin:round;stroke-miterlimit:4;stroke-dasharray:none;stroke-opacity:1"
           d="m 0,0 0,7.08 m 0,1.8 0,1.68 m 0,1.799 0,10.561 m 0,1.68 0,1.799 m 0,1.8 0,10.561 m 0,1.679 0,1.8 m 0,1.801 0,10.439 m 0,1.8 0,1.801 m 0,1.68 0,10.559 m 0,1.801 0,1.8 m 0,1.68 0,10.559 m 0,1.801 0,1.68 M 0,91.439 0,102 m 0,1.68 0,1.799 m 0,1.801 0,10.56 m 0,1.68 0,1.8 m 0,1.8 0,6.96 m -58.08,-18.24 0,55.079 m 116.16,-55.079 0,55.079 m -109.56,-2.759 102.96,0" /></g><g
         transform="translate(184.4176,477.8848)"
         id="g6138"
         style="stroke-width:0.67271823;stroke-miterlimit:4;stroke-dasharray:none"><path
           inkscape:connector-curvature="0"
           id="path6140"
           style="fill:#231f20;fill-opacity:1;fill-rule:evenodd;stroke:none;stroke-width:0.67271823;stroke-miterlimit:4;stroke-dasharray:none"
           d="m 0,0 0,-2.28 -6.6,1.2" /></g><g
         transform="translate(287.378,477.8848)"
         id="g6142"
         style="stroke-width:0.67271823;stroke-miterlimit:4;stroke-dasharray:none"><path
           inkscape:connector-curvature="0"
           id="path6144"
           style="fill:#231f20;fill-opacity:1;fill-rule:evenodd;stroke:none;stroke-width:0.67271823;stroke-miterlimit:4;stroke-dasharray:none"
           d="m 0,0 0,-2.28 6.6,1.2" /></g><g
         transform="translate(230.0177,486.6446)"
         id="g6146"
         style="stroke-width:0.67271823;stroke-miterlimit:4;stroke-dasharray:none"><path
           inkscape:connector-curvature="0"
           id="path6148"
           style="fill:none;stroke:#231f20;stroke-width:0.5572027;stroke-linecap:round;stroke-linejoin:round;stroke-miterlimit:4;stroke-dasharray:none;stroke-opacity:1"
           d="m 0,0 1.44,1.44 3,0 L 5.88,0 5.88,-1.56 4.44,-3 1.44,-3 0,-4.44 l 0,-3 5.88,0 M 8.76,0 l 1.56,1.44 0,-8.88 m -1.56,0 3,0" /></g><g
         transform="translate(194.9776,353.565)"
         id="g6150"
         style="stroke-width:0.67271823;stroke-miterlimit:4;stroke-dasharray:none"><path
           inkscape:connector-curvature="0"
           id="path6152"
           style="fill:none;stroke:#231f20;stroke-width:0.5572027;stroke-linecap:round;stroke-linejoin:round;stroke-miterlimit:4;stroke-dasharray:none;stroke-opacity:1"
           d="m 0,0 4.32,0 m 34.32,0 4.44,0" /></g><g
         transform="translate(394.6578,456.1646)"
         id="g6154"
         style="stroke-width:0.67271823;stroke-miterlimit:4;stroke-dasharray:none"><path
           inkscape:connector-curvature="0"
           id="path6156"
           style="fill:none;stroke:#231f20;stroke-width:0.5572027;stroke-linecap:round;stroke-linejoin:round;stroke-miterlimit:4;stroke-dasharray:none;stroke-opacity:1"
           d="m 0,0 0,-6.48 m 0,-1.8 0,-1.68 m 0,-1.8 0,-10.56 m 0,-1.8 0,-1.68 m 0,-1.8 0,-10.56 m 0,-1.68 0,-1.8 M 0,-43.439 0,-54 m 0,-1.68 0,-1.799 m 0,-1.681 0,-10.56 m 0,-1.8 0,-1.8 M 0,-75 0,-85.56 m 0,-1.8 0,-1.68 m 0,-1.8 0,-10.559 m 0,-1.801 0,-1.68 m 0,-1.8 0,-10.56 m 0,-1.68 0,-1.8 m 0,-1.8 0,-10.56 m 0,-1.68 0,-1.8 m 0,-1.68 0,-6.6" /></g><g
         transform="translate(355.898,427.2447)"
         id="g6158"
         style="stroke-width:0.67271823;stroke-miterlimit:4;stroke-dasharray:none"><path
           inkscape:connector-curvature="0"
           id="path6160"
           style="fill:none;stroke:#231f20;stroke-width:0.5572027;stroke-linecap:round;stroke-linejoin:round;stroke-miterlimit:4;stroke-dasharray:none;stroke-opacity:1"
           d="m 0,0 77.52,0 m -80.28,-2.76 0,-8.28 m 83.039,8.28 0,-8.28 m -74.759,-63.6 66.36,0 m -74.64,63.6 83.039,0 M 0,0 -1.08,-0.12 -1.92,-0.72 -2.521,-1.68 -2.76,-2.76 m 83.039,0 -0.239,1.08 -0.601,0.96 -0.96,0.6 L 77.52,0 M 3,-11.04 3,-25.44 m 2.52,14.4 0,-63.6 m 0,46.44 -2.52,2.76 m 68.88,-2.76 2.519,2.76 m -2.519,14.4 0,-63.6 m 2.519,63.6 0,-14.4 M 5.52,-58.08 l 66.36,0 m -46.92,47.04 0,-47.04 m 27.6,47.04 0,-47.04 m -27.6,24.96 27.6,0" /></g><g
         transform="translate(380.858,397.3648)"
         id="g6162"
         style="stroke-width:0.67271823;stroke-miterlimit:4;stroke-dasharray:none"><path
           inkscape:connector-curvature="0"
           id="path6164"
           style="fill:none;stroke:#231f20;stroke-width:0.5572027;stroke-linecap:round;stroke-linejoin:round;stroke-miterlimit:4;stroke-dasharray:none;stroke-opacity:1"
           d="M 0,0 27.6,0 M 0,3.36 l 27.6,0 M 0,6.72 l 27.6,0 M 0,9.96 l 27.6,0 M 0,13.32 l 27.6,0 M 0,16.68 l 27.6,0" /></g><g
         transform="translate(386.858,313.8443)"
         id="g6166"
         style="stroke-width:0.67271823;stroke-miterlimit:4;stroke-dasharray:none"><path
           inkscape:connector-curvature="0"
           id="path6168"
           style="fill:none;stroke:#231f20;stroke-width:0.5572027;stroke-linecap:round;stroke-linejoin:round;stroke-miterlimit:4;stroke-dasharray:none;stroke-opacity:1"
           d="m 0,0 15.479,0 m -21,38.761 0,-33.24 M 21,38.761 21,5.521 M 0,0 -5.521,5.521 M 15.479,0 21,5.521 M -3.24,3.36 l 22.08,0 M 5.16,14.521 2.64,21.24 m 7.679,-6.719 c 2.597,4.76 5.769,12.39 -1.799,14.16 -4.014,0.544 -7.547,-3.44 -5.88,-7.441 m 2.52,-6.719 0.6,-0.96 0.96,-0.601 1.08,-0.239 1.08,0.239 0.84,0.601 0.599,0.96 m -30.239,105.359 0,-6.48 m 4.56,24.96 46.32,0 m -50.88,-18.48 1.44,8.281 1.2,8.52 m 0.599,1.199 0,-24.48 m 1.321,24.96 -0.96,-0.239 -0.72,-0.6 -0.24,-0.84 m 50.16,0 -0.36,0.84 -0.72,0.6 -0.84,0.239 m 1.32,-0.48 0,-24.48 m 0.6,23.281 1.08,-8.52 1.439,-8.281 0,-6.48" /></g><g
         transform="translate(215.378,452.2046)"
         id="g6170"
         style="stroke-width:0.67271823;stroke-miterlimit:4;stroke-dasharray:none"><path
           inkscape:connector-curvature="0"
           id="path6172"
           style="fill:none;stroke:#231f20;stroke-width:0.5572027;stroke-linecap:round;stroke-linejoin:round;stroke-miterlimit:4;stroke-dasharray:none;stroke-opacity:1"
           d="m 0,0 104.28,0 m -28.44,-24.96 28.44,0 m -2.76,18.36 0,-11.64" /></g><g
         transform="translate(315.818,445.6045)"
         id="g6174"
         style="stroke-width:0.67271823;stroke-miterlimit:4;stroke-dasharray:none"><path
           inkscape:connector-curvature="0"
           id="path6176"
           style="fill:#231f20;fill-opacity:1;fill-rule:evenodd;stroke:none;stroke-width:0.67271823;stroke-miterlimit:4;stroke-dasharray:none"
           d="M 0,0 2.16,0 1.08,6.6" /></g><g
         transform="translate(315.818,433.9649)"
         id="g6178"
         style="stroke-width:0.67271823;stroke-miterlimit:4;stroke-dasharray:none"><path
           inkscape:connector-curvature="0"
           id="path6180"
           style="fill:#231f20;fill-opacity:1;fill-rule:evenodd;stroke:none;stroke-width:0.67271823;stroke-miterlimit:4;stroke-dasharray:none"
           d="M 0,0 2.16,0 1.08,-6.72" /></g><g
         transform="translate(311.3775,436.8448)"
         id="g6182"
         style="stroke-width:0.67271823;stroke-miterlimit:4;stroke-dasharray:none"><path
           inkscape:connector-curvature="0"
           id="path6184"
           style="fill:none;stroke:#231f20;stroke-width:0.5572027;stroke-linecap:round;stroke-linejoin:round;stroke-miterlimit:4;stroke-dasharray:none;stroke-opacity:1"
           d="m 0,0 0,-6 -5.88,4.44 8.88,0 m 0,4.44 -1.439,0 m 0,3 1.439,1.44 0,3 -1.439,1.44 -3,0 -1.441,-1.44 0,-4.44 -3,0 0,5.88 m -14.28,-21.36 28.44,0 m -25.68,-11.04 25.68,0 m -2.759,17.76 0,6.6 m 0,-30.96 0,-6.72 m 0,24.36 0,-11.04" /></g><g
         transform="translate(315.818,433.9649)"
         id="g6186"
         style="stroke-width:0.67271823;stroke-miterlimit:4;stroke-dasharray:none"><path
           inkscape:connector-curvature="0"
           id="path6188"
           style="fill:#231f20;fill-opacity:1;fill-rule:evenodd;stroke:none;stroke-width:0.67271823;stroke-miterlimit:4;stroke-dasharray:none"
           d="M 0,0 2.16,0 1.08,-6.72" /></g><g
         transform="translate(315.818,409.605)"
         id="g6190"
         style="stroke-width:0.67271823;stroke-miterlimit:4;stroke-dasharray:none"><path
           inkscape:connector-curvature="0"
           id="path6192"
           style="fill:#231f20;fill-opacity:1;fill-rule:evenodd;stroke:none;stroke-width:0.67271823;stroke-miterlimit:4;stroke-dasharray:none"
           d="M 0,0 2.16,0 1.08,6.6" /></g><g
         transform="translate(306.9381,418.8448)"
         id="g6194"
         style="stroke-width:0.67271823;stroke-miterlimit:4;stroke-dasharray:none"><path
           inkscape:connector-curvature="0"
           id="path6196"
           style="fill:none;stroke:#231f20;stroke-width:0.5572027;stroke-linecap:round;stroke-linejoin:round;stroke-miterlimit:4;stroke-dasharray:none;stroke-opacity:1"
           d="m 0,0 -1.44,1.44 0,3 L 0,5.88 1.56,5.88 3,4.44 3,1.44 4.439,0 l 3,0 0,5.88 m -20.399,-8.52 25.68,0 m -37.32,-58.08 37.32,0 m -2.76,51.48 0,-44.88" /></g><g
         transform="translate(315.818,409.605)"
         id="g6198"
         style="stroke-width:0.67271823;stroke-miterlimit:4;stroke-dasharray:none"><path
           inkscape:connector-curvature="0"
           id="path6200"
           style="fill:#231f20;fill-opacity:1;fill-rule:evenodd;stroke:none;stroke-width:0.67271823;stroke-miterlimit:4;stroke-dasharray:none"
           d="M 0,0 2.16,0 1.08,6.6" /></g><g
         transform="translate(315.818,364.7251)"
         id="g6202"
         style="stroke-width:0.67271823;stroke-miterlimit:4;stroke-dasharray:none"><path
           inkscape:connector-curvature="0"
           id="path6204"
           style="fill:#231f20;fill-opacity:1;fill-rule:evenodd;stroke:none;stroke-width:0.67271823;stroke-miterlimit:4;stroke-dasharray:none"
           d="M 0,0 2.16,0 1.08,-6.601" /></g><g
         transform="translate(306.9381,376.1245)"
         id="g6206"
         style="stroke-width:0.67271823;stroke-miterlimit:4;stroke-dasharray:none"><path
           inkscape:connector-curvature="0"
           id="path6208"
           style="fill:none;stroke:#231f20;stroke-width:0.5572027;stroke-linecap:round;stroke-linejoin:round;stroke-miterlimit:4;stroke-dasharray:none;stroke-opacity:1"
           d="m 0,0 -1.44,1.44 8.879,0 m 0,-1.44 0,2.88 m 0,4.44 L 6,5.88 l -6,0 -1.44,1.44 0,1.56 1.44,1.44 6,0 1.439,-1.44 0,-1.56 z m 0,5.88 -1.439,0 m 0,3 1.439,1.441 0,3 L 6,22.08 l -3,0 -1.44,-1.439 0,-4.441 -3,0 0,5.88 M -24.6,-18 l 37.2,0 m -82.56,-44.28 82.56,0 m -2.76,37.56 0,-30.96" /></g><g
         transform="translate(315.6978,351.4048)"
         id="g6210"
         style="stroke-width:0.67271823;stroke-miterlimit:4;stroke-dasharray:none"><path
           inkscape:connector-curvature="0"
           id="path6212"
           style="fill:#231f20;fill-opacity:1;fill-rule:evenodd;stroke:none;stroke-width:0.67271823;stroke-miterlimit:4;stroke-dasharray:none"
           d="M 0,0 2.16,0 1.08,6.72" /></g><g
         transform="translate(315.6978,320.4449)"
         id="g6214"
         style="stroke-width:0.67271823;stroke-miterlimit:4;stroke-dasharray:none"><path
           inkscape:connector-curvature="0"
           id="path6216"
           style="fill:#231f20;fill-opacity:1;fill-rule:evenodd;stroke:none;stroke-width:0.67271823;stroke-miterlimit:4;stroke-dasharray:none"
           d="M 0,0 2.16,0 1.08,-6.601" /></g><g
         transform="translate(314.2574,334.4849)"
         id="g6218"
         style="stroke-width:0.67271823;stroke-miterlimit:4;stroke-dasharray:none"><path
           inkscape:connector-curvature="0"
           id="path6220"
           style="fill:none;stroke:#231f20;stroke-width:0.5572027;stroke-linecap:round;stroke-linejoin:round;stroke-miterlimit:4;stroke-dasharray:none;stroke-opacity:1"
           d="m 0,0 -1.439,-1.44 -1.441,0 -1.559,1.44 0,3 -1.441,1.439 -1.439,0 L -8.88,3 l 0,-3 1.561,-1.44 1.439,0 1.441,1.44 m 0,3 1.559,1.439 1.441,0 L 0,3 0,0 m -117.12,-23.28 0,-12.72 m 38.761,14.16 0,-14.16 m -32.161,2.76 25.44,0" /></g><g
         transform="translate(203.7379,302.3247)"
         id="g6222"
         style="stroke-width:0.67271823;stroke-miterlimit:4;stroke-dasharray:none"><path
           inkscape:connector-curvature="0"
           id="path6224"
           style="fill:#231f20;fill-opacity:1;fill-rule:evenodd;stroke:none;stroke-width:0.67271823;stroke-miterlimit:4;stroke-dasharray:none"
           d="m 0,0 0,-2.16 -6.6,1.08" /></g><g
         transform="translate(229.1778,302.3247)"
         id="g6226"
         style="stroke-width:0.67271823;stroke-miterlimit:4;stroke-dasharray:none"><path
           inkscape:connector-curvature="0"
           id="path6228"
           style="fill:#231f20;fill-opacity:1;fill-rule:evenodd;stroke:none;stroke-width:0.67271823;stroke-miterlimit:4;stroke-dasharray:none"
           d="m 0,0 0,-2.16 6.72,1.08" /></g><g
         transform="translate(213.5777,312.5249)"
         id="g6230"
         style="stroke-width:0.67271823;stroke-miterlimit:4;stroke-dasharray:none"><path
           inkscape:connector-curvature="0"
           id="path6232"
           style="fill:none;stroke:#231f20;stroke-width:0.5572027;stroke-linecap:round;stroke-linejoin:round;stroke-miterlimit:4;stroke-dasharray:none;stroke-opacity:1"
           d="M 0,0 5.88,0 1.44,-8.76 m -20.04,24.36 0,-4.201 m 4.32,4.201 0,-4.201 m -11.04,2.761 -6.6,0 m 24.36,0 6.6,0 m -3.72,2.64 -1.56,1.44 0,5.88 1.56,1.56 1.44,0 1.44,-1.56 0,-5.88 -1.44,-1.44 -1.44,0 z m 5.88,0 0,1.44 m 4.44,-1.44 -1.56,1.44 0,1.44 1.56,1.56 2.88,0 1.56,1.44 0,1.44 -1.56,1.56 -2.88,0 -1.56,-1.56 0,-1.44 1.56,-1.44 m 2.88,0 1.56,-1.56 0,-1.44 -1.56,-1.44 -2.88,0 m -24.24,-2.64 4.32,0" /></g><g
         transform="translate(188.2579,327.7652)"
         id="g6234"
         style="stroke-width:0.67271823;stroke-miterlimit:4;stroke-dasharray:none"><path
           inkscape:connector-curvature="0"
           id="path6236"
           style="fill:#231f20;fill-opacity:1;fill-rule:evenodd;stroke:none;stroke-width:0.67271823;stroke-miterlimit:4;stroke-dasharray:none"
           d="m 0,0 0,-2.16 6.72,1.08" /></g><g
         transform="translate(206.0177,327.7652)"
         id="g6238"
         style="stroke-width:0.67271823;stroke-miterlimit:4;stroke-dasharray:none"><path
           inkscape:connector-curvature="0"
           id="path6240"
           style="fill:#231f20;fill-opacity:1;fill-rule:evenodd;stroke:none;stroke-width:0.67271823;stroke-miterlimit:4;stroke-dasharray:none"
           d="m 0,0 0,-2.16 -6.72,1.08" /></g><g
         transform="translate(183.818,352.605)"
         id="g6242"
         style="stroke-width:0.67271823;stroke-miterlimit:4;stroke-dasharray:none"><path
           inkscape:connector-curvature="0"
           id="path6244"
           style="fill:none;stroke:#231f20;stroke-width:0.5572027;stroke-linecap:round;stroke-linejoin:round;stroke-miterlimit:4;stroke-dasharray:none;stroke-opacity:1"
           d="M 0,0 0,-72.84 M 104.04,0 l 0,-72.84 m -97.32,2.76 90.72,0" /></g><g
         transform="translate(190.5377,283.605)"
         id="g6246"
         style="stroke-width:0.67271823;stroke-miterlimit:4;stroke-dasharray:none"><path
           inkscape:connector-curvature="0"
           id="path6248"
           style="fill:#231f20;fill-opacity:1;fill-rule:evenodd;stroke:none;stroke-width:0.67271823;stroke-miterlimit:4;stroke-dasharray:none"
           d="m 0,0 0,-2.16 -6.72,1.08" /></g><g
         transform="translate(281.2579,283.605)"
         id="g6250"
         style="stroke-width:0.67271823;stroke-miterlimit:4;stroke-dasharray:none"><path
           inkscape:connector-curvature="0"
           id="path6252"
           style="fill:#231f20;fill-opacity:1;fill-rule:evenodd;stroke:none;stroke-width:0.67271823;stroke-miterlimit:4;stroke-dasharray:none"
           d="m 0,0 0,-2.16 6.6,1.08" /></g><g
         transform="translate(224.0177,292.3648)"
         id="g6254"
         style="stroke-width:0.67271823;stroke-miterlimit:4;stroke-dasharray:none"><path
           inkscape:connector-curvature="0"
           id="path6256"
           style="fill:none;stroke:#231f20;stroke-width:0.5572027;stroke-linecap:round;stroke-linejoin:round;stroke-miterlimit:4;stroke-dasharray:none;stroke-opacity:1"
           d="m 0,0 1.56,1.439 0,-8.759 m -1.56,0 3,0 m 4.44,0 -1.44,1.44 0,1.44 1.44,1.44 3,0 1.44,1.56 0,1.44 -1.44,1.439 -3,0 L 6,0 6,-1.44 7.44,-3 m 3,0 1.44,-1.44 0,-1.44 -1.44,-1.44 -3,0 m 7.32,0 0,1.44 m 4.44,-1.44 -1.44,1.44 0,1.44 1.44,1.44 3,0 1.44,1.56 0,1.44 -1.44,1.439 -3,0 L 17.76,0 17.76,-1.44 19.2,-3 m 3,0 1.44,-1.44 0,-1.44 -1.44,-1.44 -3,0 m -59.4,67.56 -18.72,0 m 24.24,5.52 -24.24,0 m 2.76,-12.24 0,-6.6 m 0,25.44 0,14.64 m 0,-26.76 0,5.52" /></g><g
         transform="translate(166.6578,345.8843)"
         id="g6258"
         style="stroke-width:0.67271823;stroke-miterlimit:4;stroke-dasharray:none"><path
           inkscape:connector-curvature="0"
           id="path6260"
           style="fill:#231f20;fill-opacity:1;fill-rule:evenodd;stroke:none;stroke-width:0.67271823;stroke-miterlimit:4;stroke-dasharray:none"
           d="M 0,0 2.28,0 1.2,6.721" /></g><g
         transform="translate(166.6578,364.7251)"
         id="g6262"
         style="stroke-width:0.67271823;stroke-miterlimit:4;stroke-dasharray:none"><path
           inkscape:connector-curvature="0"
           id="path6264"
           style="fill:#231f20;fill-opacity:1;fill-rule:evenodd;stroke:none;stroke-width:0.67271823;stroke-miterlimit:4;stroke-dasharray:none"
           d="M 0,0 2.28,0 1.2,-6.601" /></g><g
         transform="translate(157.898,373.8443)"
         id="g6266"
         style="stroke-width:0.67271823;stroke-miterlimit:4;stroke-dasharray:none"><path
           inkscape:connector-curvature="0"
           id="path6268"
           style="fill:none;stroke:#231f20;stroke-width:0.5572027;stroke-linecap:round;stroke-linejoin:round;stroke-miterlimit:4;stroke-dasharray:none;stroke-opacity:1"
           d="m 0,0 -1.44,1.561 8.88,0 m 0,-1.561 0,3 m 215.999,-57.479 0,-23.041 m 26.521,23.041 0,-23.041 m -19.92,2.76 13.319,0" /></g><g
         transform="translate(387.9381,300.2847)"
         id="g6270"
         style="stroke-width:0.67271823;stroke-miterlimit:4;stroke-dasharray:none"><path
           inkscape:connector-curvature="0"
           id="path6272"
           style="fill:#231f20;fill-opacity:1;fill-rule:evenodd;stroke:none;stroke-width:0.67271823;stroke-miterlimit:4;stroke-dasharray:none"
           d="M 0,0 0,-2.28 -6.601,-1.2" /></g><g
         transform="translate(401.2574,300.2847)"
         id="g6274"
         style="stroke-width:0.67271823;stroke-miterlimit:4;stroke-dasharray:none"><path
           inkscape:connector-curvature="0"
           id="path6276"
           style="fill:#231f20;fill-opacity:1;fill-rule:evenodd;stroke:none;stroke-width:0.67271823;stroke-miterlimit:4;stroke-dasharray:none"
           d="M 0,0 0,-2.28 6.601,-1.2" /></g><g
         transform="translate(391.6578,304.605)"
         id="g6278"
         style="stroke-width:0.67271823;stroke-miterlimit:4;stroke-dasharray:none"><path
           inkscape:connector-curvature="0"
           id="path6280"
           style="fill:none;stroke:#231f20;stroke-width:0.5572027;stroke-linecap:round;stroke-linejoin:round;stroke-miterlimit:4;stroke-dasharray:none;stroke-opacity:1"
           d="m 0,0 -5.88,0 4.44,5.88 0,-8.88 M 3,-3 3,-1.561 M 7.44,-3 5.88,-1.561 5.88,0 l 1.56,1.439 2.88,0 1.56,1.441 0,1.559 -1.56,1.441 -2.88,0 -1.56,-1.441 0,-1.559 1.56,-1.441 m 2.88,0 L 11.88,0 11.88,-1.561 10.32,-3 7.44,-3 m -40.2,100.199 0,-125.399 m 71.4,125.399 0,-125.399 m -64.68,2.76 58.08,0" /></g><g
         transform="translate(365.6178,280.3648)"
         id="g6282"
         style="stroke-width:0.67271823;stroke-miterlimit:4;stroke-dasharray:none"><path
           inkscape:connector-curvature="0"
           id="path6284"
           style="fill:#231f20;fill-opacity:1;fill-rule:evenodd;stroke:none;stroke-width:0.67271823;stroke-miterlimit:4;stroke-dasharray:none"
           d="M 0,0 0,-2.28 -6.72,-1.2" /></g><g
         transform="translate(423.6978,280.3648)"
         id="g6286"
         style="stroke-width:0.67271823;stroke-miterlimit:4;stroke-dasharray:none"><path
           inkscape:connector-curvature="0"
           id="path6288"
           style="fill:#231f20;fill-opacity:1;fill-rule:evenodd;stroke:none;stroke-width:0.67271823;stroke-miterlimit:4;stroke-dasharray:none"
           d="M 0,0 0,-2.28 6.6,-1.2" /></g><g
         transform="translate(382.7779,289.1245)"
         id="g6290"
         style="stroke-width:0.67271823;stroke-miterlimit:4;stroke-dasharray:none"><path
           inkscape:connector-curvature="0"
           id="path6292"
           style="fill:none;stroke:#231f20;stroke-width:0.5572027;stroke-linecap:round;stroke-linejoin:round;stroke-miterlimit:4;stroke-dasharray:none;stroke-opacity:1"
           d="m 0,0 1.56,1.44 0,-8.879 m -1.56,0 3,0 M 6,0 l 1.439,1.44 3,0 1.441,-1.44 0,-1.56 -1.441,-1.44 -3,0 L 6,-4.439 l 0,-3 5.88,0 m 2.88,0 0,1.439 m 4.44,-1.439 1.56,0 2.88,3 0,4.439 -1.44,1.44 -3,0 -1.44,-1.44 0,-1.56 1.44,-1.44 4.44,0 m -39.48,147.6 0,31.08 m 55.319,-31.08 0,31.08 m -48.599,-2.76 42,0" /></g><g
         transform="translate(373.6578,463.1245)"
         id="g6294"
         style="stroke-width:0.67271823;stroke-miterlimit:4;stroke-dasharray:none"><path
           inkscape:connector-curvature="0"
           id="path6296"
           style="fill:#231f20;fill-opacity:1;fill-rule:evenodd;stroke:none;stroke-width:0.67271823;stroke-miterlimit:4;stroke-dasharray:none"
           d="m 0,0 0,-2.28 -6.72,1.2" /></g><g
         transform="translate(415.6578,463.1245)"
         id="g6298"
         style="stroke-width:0.67271823;stroke-miterlimit:4;stroke-dasharray:none"><path
           inkscape:connector-curvature="0"
           id="path6300"
           style="fill:#231f20;fill-opacity:1;fill-rule:evenodd;stroke:none;stroke-width:0.67271823;stroke-miterlimit:4;stroke-dasharray:none"
           d="m 0,0 0,-2.28 6.6,1.2" /></g><g
         transform="translate(389.4976,471.8848)"
         id="g6302"
         style="stroke-width:0.67271823;stroke-miterlimit:4;stroke-dasharray:none"><path
           inkscape:connector-curvature="0"
           id="path6304"
           style="fill:none;stroke:#231f20;stroke-width:0.5572027;stroke-linecap:round;stroke-linejoin:round;stroke-miterlimit:4;stroke-dasharray:none;stroke-opacity:1"
           d="m 0,0 1.44,1.44 0,-8.88 m -1.44,0 2.88,0 m 4.44,0 -1.44,1.56 0,5.88 1.44,1.44 1.56,0 1.44,-1.44 0,-5.88 -1.44,-1.56 -1.56,0 z m -43.679,-39.96 0,55.8 m 83.039,-55.8 0,55.8 m -76.44,-2.76 69.72,0" /></g><g
         transform="translate(359.7379,478.6045)"
         id="g6306"
         style="stroke-width:0.67271823;stroke-miterlimit:4;stroke-dasharray:none"><path
           inkscape:connector-curvature="0"
           id="path6308"
           style="fill:#231f20;fill-opacity:1;fill-rule:evenodd;stroke:none;stroke-width:0.67271823;stroke-miterlimit:4;stroke-dasharray:none"
           d="m 0,0 0,-2.16 -6.6,1.08" /></g><g
         transform="translate(429.4576,478.6045)"
         id="g6310"
         style="stroke-width:0.67271823;stroke-miterlimit:4;stroke-dasharray:none"><path
           inkscape:connector-curvature="0"
           id="path6312"
           style="fill:#231f20;fill-opacity:1;fill-rule:evenodd;stroke:none;stroke-width:0.67271823;stroke-miterlimit:4;stroke-dasharray:none"
           d="m 0,0 0,-2.16 6.72,1.08" /></g><g
         transform="translate(388.7779,487.3648)"
         id="g6314"
         style="stroke-width:0.67271823;stroke-miterlimit:4;stroke-dasharray:none"><path
           inkscape:connector-curvature="0"
           id="path6316"
           style="fill:none;stroke:#231f20;stroke-width:0.5572027;stroke-linecap:round;stroke-linejoin:round;stroke-miterlimit:4;stroke-dasharray:none;stroke-opacity:1"
           d="m 0,0 1.439,1.56 0,-8.88 m -1.439,0 2.88,0 m 3,1.44 1.44,-1.44 3,0 1.44,1.44 0,3 -1.44,1.44 -4.44,0 0,3 5.88,0" /></g></g><circle
       style="fill:#ff0000;fill-rule:evenodd;stroke:#000000;stroke-width:0.28346458;stroke-linecap:butt;stroke-linejoin:miter;stroke-miterlimit:4;stroke-dasharray:none;stroke-opacity:1"
       id="path8799"
       cx="174.01895"
       cy="-538.47974"
       r="33.874016"
       transform="scale(1,-1)" /><path
       style="fill:none;fill-rule:evenodd;stroke:#000000;stroke-width:0.80000001px;stroke-linecap:butt;stroke-linejoin:miter;stroke-opacity:1"
       d="m 174.01895,538.47974 -12.52961,6.36812"
       id="path8803"
       inkscape:connector-curvature="0"
       sodipodi:nodetypes="cc" /></g></svg>